<svg xmlns="http://www.w3.org/2000/svg" width="20" height="19" viewBox="0 0 20 19"><g><g><g><path fill="#d99a05" d="M9.401 12.283h1.114v1.113H9.4z"/></g><g><path fill="#d99a05" d="M3.835 7.83h1.113v1.113H3.835z"/></g><g><path fill="#d99a05" d="M9.401 0h1.114v3.34H9.4z"/></g><g><path fill="#d99a05" d="M9.401 7.83h1.114v1.113H9.4z"/></g><g><path fill="#d99a05" d="M3.835 0h1.113v3.34H3.835z"/></g><g><path fill="#d99a05" d="M3.835 12.283h1.113v1.113H3.835z"/></g><g><path fill="#d99a05" d="M14.968 7.83h1.113v1.113h-1.113z"/></g><g><path fill="#d99a05" d="M17.194 10.057h-3.34v-3.34h3.34zm0 4.453h-3.34v-3.34h3.34zm-5.566-4.453h-3.34v-3.34h3.34zm0 4.453h-3.34v-3.34h3.34zm-5.566-4.453h-3.34v-3.34h3.34zm0 4.453h-3.34v-3.34h3.34zM17.194 4.453h-3.34V2.227h-2.226v2.226h-3.34V2.227H6.062v2.226h-3.34V2.227H.458v13.396h19V2.227h-2.264z"/></g><g><path fill="#d99a05" d="M14.968 12.283h1.113v1.113h-1.113z"/></g><g><path fill="#d99a05" d="M14.968 0h1.113v3.34h-1.113z"/></g><g><path fill="#d99a05" d="M.458 16.736h19V19h-19z"/></g></g></g></svg>