<svg xmlns="http://www.w3.org/2000/svg" width="70" height="77" viewBox="0 0 70 77"><g><g><g><g><path fill="#f9ba48" d="M38.75 40.017c-6.204 0-11.25-5.046-11.25-11.25s5.046-11.25 11.25-11.25S50 22.563 50 28.767s-5.046 11.25-11.25 11.25z"/></g><g><path fill="#333" d="M16.25 68.75a1.25 1.25 0 1 1 .001-2.501 1.25 1.25 0 0 1-.001 2.5zm0-5a3.755 3.755 0 0 0-3.75 3.75 3.755 3.755 0 0 0 3.75 3.75A3.755 3.755 0 0 0 20 67.5a3.755 3.755 0 0 0-3.75-3.75z"/></g><g><path fill="#333" d="M53.75 68.75a1.25 1.25 0 1 1 0-2.501 1.25 1.25 0 0 1 0 2.5zm0-5A3.755 3.755 0 0 0 50 67.5a3.755 3.755 0 0 0 3.75 3.75 3.755 3.755 0 0 0 3.75-3.75 3.754 3.754 0 0 0-3.75-3.75z"/></g><g><path fill="#333" d="M67.5 61.25c0 2.757-2.243 5-5 5h-.1c-.61-4.233-4.251-7.5-8.65-7.5s-8.04 3.267-8.65 7.5H24.9c-.61-4.233-4.251-7.5-8.65-7.5s-8.04 3.267-8.65 7.5H4.104A1.605 1.605 0 0 1 2.5 64.646V62.5h3.125a3.128 3.128 0 0 0 3.125-3.125 3.128 3.128 0 0 0-3.125-3.125H5v2.5h.625c.344 0 .625.281.625.625a.627.627 0 0 1-.625.625H2.518a5.765 5.765 0 0 1 4.08-5.337l11.635-3.58 7.597-9.367c.349-.43.941-.565 1.439-.34.598.276.869.987.601 1.59l-2.514 5.654a3.638 3.638 0 0 0 .277 3.47 3.636 3.636 0 0 0 3.058 1.66h21.827l.366-.366a7.335 7.335 0 0 1 5.151-2.134H60c.69 0 1.25.56 1.25 1.25v1.25h1.25c2.757 0 5 2.243 5 5zm-13.75 12.5a6.257 6.257 0 0 1-6.25-6.25 6.257 6.257 0 0 1 6.25-6.25A6.257 6.257 0 0 1 60 67.5a6.257 6.257 0 0 1-6.25 6.25zm-37.5 0A6.257 6.257 0 0 1 10 67.5a6.257 6.257 0 0 1 6.25-6.25 6.257 6.257 0 0 1 6.25 6.25 6.257 6.257 0 0 1-6.25 6.25zm20.142-25.306c.35-.583.987-.944 1.666-.944 1.07 0 1.942.871 1.942 1.942v1.808h-5.292zm27.17 2.88A3.76 3.76 0 0 0 60 48.75h-3.965a9.869 9.869 0 0 0-6.533 2.5H42.5v-1.807A4.447 4.447 0 0 0 38.057 45a4.465 4.465 0 0 0-3.81 2.158l-2.455 4.092h-3.1c-.396 0-.748-.19-.965-.523a1.13 1.13 0 0 1-.086-1.093l2.514-5.654a3.718 3.718 0 0 0-1.848-4.876 3.707 3.707 0 0 0-4.42 1.036l-7.118 8.777-10.906 3.355A8.265 8.265 0 0 0 0 60.211v4.435a4.109 4.109 0 0 0 4.104 4.104H7.6c.61 4.232 4.251 7.5 8.65 7.5s8.04-3.268 8.65-7.5h20.2c.61 4.232 4.251 7.5 8.65 7.5s8.04-3.268 8.65-7.5h.1c4.136 0 7.5-3.364 7.5-7.5v-2.5c0-3.776-2.804-6.908-6.438-7.425z"/></g><g><path fill="#333" d="M40 32.5h-2.5c-.69 0-1.25 0-1.25-1.25h-2.5c0 2.5 1.682 3.767 3.75 3.767v1.233H40v-1.233a3.762 3.762 0 0 0 3.75-3.758 3.762 3.762 0 0 0-3.75-3.76h-2.5a1.25 1.25 0 0 1 0-2.499H40c.69 0 1.25 0 1.25 1.25h2.5c0-2.5-1.683-3.733-3.75-3.733V21.25h-2.5v1.267a3.747 3.747 0 0 0-3.75 3.742 3.747 3.747 0 0 0 3.75 3.74H40a1.25 1.25 0 0 1 0 2.5z"/></g><g><path fill="#333" d="M37.5 15V6.25H40V15z"/></g><g><path fill="#333" d="M37.5 3.768v-2.5H40v2.5z"/></g><g><path fill="#333" d="M45 17.5V5h2.5v12.5z"/></g><g><path fill="#333" d="M45 2.5V0h2.5v2.5z"/></g><g><path fill="#333" d="M30 17.5V8.75h2.5v8.75z"/></g><g><path fill="#333" d="M30 6.268v-2.5h2.5v2.5z"/></g></g></g></g></svg>