<svg xmlns="http://www.w3.org/2000/svg" width="32" height="40" viewBox="0 0 32 40"><g><g><g><path fill="#b8b8b8" d="M28.667 8V0H0v36.667h2V2h20.667z"/></g><g><path fill="#b8b8b8" d="M21.333 14V4.667L30.667 14zM26 18H9.333a.666.666 0 1 1 0-1.333H26A.666.666 0 1 1 26 18zm0 5.333H9.333a.666.666 0 1 1 0-1.333H26a.666.666 0 1 1 0 1.333zm0 5.334H9.333a.666.666 0 1 1 0-1.334H26a.666.666 0 1 1 0 1.334zM26 34H9.333a.666.666 0 1 1 0-1.333H26A.666.666 0 1 1 26 34zM9.333 11.333H16a.666.666 0 1 1 0 1.334H9.333a.666.666 0 1 1 0-1.334zm12.943-8H3.333V40H32V13.057z"/></g></g></g></svg>