<svg xmlns="http://www.w3.org/2000/svg" width="54" height="40" viewBox="0 0 54 40"><g><g><g><path fill="#e6e6e6" d="M3.392 32.164L0 40h16.186l-3.392-7.836z"/></g><g><path fill="#e6e6e6" d="M31.496 12.982h-9.403l-3.391 7.837h16.186z"/></g><g><path fill="#e6e6e6" d="M22.134 22.573H12.73L9.34 30.41h16.186z"/></g><g><path fill="#e6e6e6" d="M22.116 32.164L18.724 40H34.91l-3.391-7.836z"/></g><g><path fill="#e6e6e6" d="M40.794 32.164L37.404 40h16.185l-3.392-7.836z"/></g><g><path fill="#e6e6e6" d="M28.064 30.41H44.25l-3.392-7.837h-9.403z"/></g><g><path fill="#e6e6e6" d="M26.795 6.667a.819.819 0 0 0 .818-.82V.82a.819.819 0 1 0-1.637 0v5.029c0 .452.366.819.819.819z"/></g><g><path fill="#e6e6e6" d="M45.695 13.226a.813.813 0 0 0 .579-.24L49.78 9.48a.818.818 0 1 0-1.158-1.158l-3.506 3.506a.819.819 0 0 0 .579 1.398z"/></g><g><path fill="#e6e6e6" d="M7.198 12.986a.819.819 0 0 0 1.158-1.158L4.85 8.322A.819.819 0 0 0 3.692 9.48z"/></g><g><path fill="#e6e6e6" d="M15.106 8.12a.82.82 0 0 0 1.497-.665l-2.015-4.53a.82.82 0 1 0-1.496.665z"/></g><g><path fill="#e6e6e6" d="M36.556 8.167a.819.819 0 0 0 1.064-.456l1.841-4.604a.819.819 0 0 0-1.52-.608l-1.842 4.603a.819.819 0 0 0 .457 1.065z"/></g></g></g></svg>