<svg xmlns="http://www.w3.org/2000/svg" width="50" height="40" viewBox="0 0 50 40"><g><g><g><g><g><path fill="#e6e6e6" d="M47.658 26.668l-19.746-.02v2.03a1.761 1.761 0 0 1-1.756 1.756h-2.573a1.756 1.756 0 0 1-1.761-1.73v-2.03H2.096A3.506 3.506 0 0 1 0 25.967V37.64A2.37 2.37 0 0 0 2.36 40h44.973a2.37 2.37 0 0 0 2.4-2.34V25.988a3.506 3.506 0 0 1-2.075.68z"/></g></g></g><g><g><g><path fill="#e6e6e6" d="M18.31 6.607V3.106h13.113v3.501zm29.043 0H34.51V3.02A3.014 3.014 0 0 0 33.62.888 3.014 3.014 0 0 0 31.489 0H18.224a3.045 3.045 0 0 0-3.045 3.045v3.588H2.38A2.37 2.37 0 0 0 0 8.967v14.154a2.08 2.08 0 0 0 2.076 2.076h19.746v-2.03a1.761 1.761 0 0 1 1.756-1.756h2.568a1.756 1.756 0 0 1 1.766 1.73v2.03h19.73a2.08 2.08 0 0 0 2.091-2.05V8.967a2.37 2.37 0 0 0-2.38-2.36z"/></g></g></g></g></g></svg>