<svg xmlns="http://www.w3.org/2000/svg" width="27" height="40" viewBox="0 0 27 40"><g><g><path fill="#e6e6e6" d="M21.562 16.354c-.174.19-.438.477-.794.859-.356.382-.62.668-.794.86-2.222 2.656-3.446 5.242-3.672 7.76h-5.938c-.225-2.518-1.45-5.104-3.671-7.76-.174-.192-.439-.478-.795-.86-.355-.382-.62-.668-.794-.86-1.18-1.37-1.77-2.933-1.77-4.687 0-1.25.299-2.413.898-3.49a7.929 7.929 0 0 1 2.344-2.643A12.056 12.056 0 0 1 9.779 3.92a11.166 11.166 0 0 1 3.554-.586c1.198 0 2.383.195 3.555.586 1.172.39 2.24.928 3.203 1.614a7.922 7.922 0 0 1 2.343 2.643 7.066 7.066 0 0 1 .9 3.49c0 1.754-.591 3.316-1.772 4.688zm3.945-9.492c-.772-1.485-1.788-2.717-3.046-3.698a15.146 15.146 0 0 0-4.27-2.318A14.426 14.426 0 0 0 13.333 0c-1.65 0-3.268.282-4.857.846a15.135 15.135 0 0 0-4.27 2.318c-1.259.98-2.275 2.213-3.047 3.698A10.253 10.253 0 0 0 0 11.666c0 2.691.894 5.018 2.682 6.98.782.85 1.428 1.605 1.94 2.265.513.66 1.03 1.488 1.55 2.487.52.998.816 1.931.886 2.8-.816.486-1.224 1.198-1.224 2.135 0 .643.217 1.198.65 1.667a2.37 2.37 0 0 0-.65 1.667c0 .903.39 1.606 1.172 2.11A2.454 2.454 0 0 0 6.667 35c0 .799.273 1.416.82 1.85.547.433 1.22.65 2.018.65a4.203 4.203 0 0 0 1.563 1.823c.694.452 1.45.677 2.265.677.817 0 1.572-.225 2.266-.677a4.202 4.202 0 0 0 1.563-1.823c.798 0 1.471-.217 2.018-.65.547-.434.82-1.051.82-1.85 0-.416-.113-.824-.34-1.223.782-.504 1.173-1.207 1.173-2.11 0-.642-.217-1.198-.651-1.667a2.372 2.372 0 0 0 .65-1.667c0-.937-.407-1.649-1.223-2.135.07-.869.365-1.802.885-2.8.522-.998 1.038-1.827 1.55-2.487a36.937 36.937 0 0 1 1.94-2.265c1.788-1.962 2.683-4.289 2.683-6.98 0-1.719-.387-3.32-1.16-4.804z"/></g></g></svg>