<svg xmlns="http://www.w3.org/2000/svg" width="35" height="40" viewBox="0 0 35 40"><g><g><g><path fill="#d99a05" d="M32.143 4.286h1.428V2.857H35V1.43H33.57V0h-1.428v1.429h-1.429v1.428h1.429z"/></g><g><path fill="#d99a05" d="M27.143 5.714h4.286v1.429h-4.286z"/></g><g><path fill="#d99a05" d="M30.714 8.571H35V10h-4.286z"/></g><g><path fill="#d99a05" d="M32.143 35.714h-1.429v1.429h-1.428v1.428h1.428V40h1.429v-1.429h1.428v-1.428h-1.428z"/></g><g><path fill="#d99a05" d="M7.857 2.143h8.572c.394 0 .714-.32.714-.714V0h-10v1.429c0 .394.32.714.714.714z"/></g><g><path fill="#d99a05" d="M25 25.714a.714.714 0 1 1-1.429 0 .714.714 0 0 1 1.429 0z"/></g><g><path fill="#d99a05" d="M13.476 38.06l-1.238-.713.715-1.238 1.237.715zm-2.52-1.612l-1.094-.917.918-1.095 1.095.921zm-2.201-2.025l-.918-1.094 1.092-.918.918 1.094zm-2.53-3.613l1.237-.714.714 1.237-1.237.714zm-1.15-2.76l1.342-.49.489 1.343-1.342.488zm-.653-2.92l1.407-.248.248 1.407-1.407.248zm-.136-2.987h1.428v1.428H4.286zm.384-2.963l1.407.248-.248 1.407-1.407-.249zm.894-2.857l1.342.489-.489 1.342-1.342-.489zm1.375-2.656l1.237.714-.714 1.238-1.237-.715zM7.143 5H8.57v1.429H7.143zm2.707 7.21l-.921 1.094-1.095-.92.918-1.093zm1.106-2.944l.919 1.091-1.095.922-.918-1.096zM10 5h1.429v1.429h-1.43zm2.857 0h1.429v1.429h-1.429zm2.857 0h1.429v1.429h-1.429zm8.572 31.857a14.286 14.286 0 1 1 0-28V2.143C24.286.959 23.326 0 22.143 0H18.57v1.429c0 1.183-.96 2.142-2.142 2.142H7.857A2.143 2.143 0 0 1 5.714 1.43V0H2.143C.959 0 0 .96 0 2.143v35.714C0 39.041.96 40 2.143 40h20c1.183 0 2.143-.96 2.143-2.143z"/></g><g><path fill="#d99a05" d="M19.286 20a.714.714 0 1 1-1.429 0 .714.714 0 0 1 1.429 0z"/></g><g><path fill="#d99a05" d="M17.388 27.908l-1.01-1.01 9.091-9.091 1.01 1.01zm6.898-.05a2.143 2.143 0 1 1 0-4.287 2.143 2.143 0 0 1 0 4.286zm-5.715-10a2.143 2.143 0 1 1 0 4.285 2.143 2.143 0 0 1 0-4.286zm15.715 5C34.286 15.755 28.529 10 21.429 10 14.328 10 8.57 15.756 8.57 22.857c0 7.1 5.757 12.857 12.858 12.857 7.097-.008 12.848-5.76 12.857-12.857z"/></g></g></g></svg>