<svg width="68" height="68" viewBox="0 0 68 68" fill="none" xmlns="http://www.w3.org/2000/svg">
<g clip-path="url(#clip0)">
<path d="M66.8711 40.9028H10.1611V47.6768H66.8711V40.9028Z" fill="#F0BC5E"/>
<path d="M57.838 63.4829C56.6135 63.4806 55.4237 63.0766 54.451 62.3329C53.4782 63.0766 52.2884 63.4806 51.0639 63.4829C49.5668 63.4829 48.131 62.8881 47.0723 61.8295C46.0137 60.7709 45.4189 59.335 45.4189 57.8379C45.4189 56.3407 46.0137 54.9049 47.0723 53.8463C48.131 52.7876 49.5668 52.1929 51.0639 52.1929C52.2885 52.1955 53.4784 52.5998 54.451 53.3439C55.4235 52.5998 56.6134 52.1955 57.838 52.1929C59.3351 52.1929 60.7709 52.7876 61.8296 53.8463C62.8882 54.9049 63.4829 56.3407 63.4829 57.8379C63.4829 59.335 62.8882 60.7709 61.8296 61.8295C60.7709 62.8881 59.3351 63.4829 57.838 63.4829Z" fill="#F0BC5E"/>
<path d="M63.613 28.516H59.226V4.387C59.2247 3.2239 58.7621 2.10882 57.9396 1.28638C57.1172 0.463949 56.0021 0.00132336 54.839 0L4.387 0C3.2239 0.00132336 2.10882 0.463949 1.28638 1.28638C0.463949 2.10882 0.00132336 3.2239 0 4.387V35.1C0.00132336 36.2631 0.463949 37.3782 1.28638 38.2006C2.10882 39.0231 3.2239 39.4857 4.387 39.487H8.774V63.613C8.77532 64.7761 9.23795 65.8912 10.0604 66.7136C10.8828 67.5361 11.9979 67.9987 13.161 68H63.613C64.7761 67.9987 65.8912 67.5361 66.7136 66.7136C67.5361 65.8912 67.9987 64.7761 68 63.613V32.9C67.9979 31.7374 67.5349 30.6231 66.7126 29.8013C65.8902 28.9795 64.7756 28.5173 63.613 28.516V28.516ZM2.194 35.1V4.387C2.19585 3.80595 2.42749 3.24922 2.83835 2.83835C3.24922 2.42749 3.80595 2.19585 4.387 2.194H54.839C55.4204 2.19558 55.9775 2.42724 56.3886 2.83836C56.7998 3.24947 57.0314 3.8066 57.033 4.388V35.1C57.0314 35.6814 56.7998 36.2385 56.3886 36.6496C55.9775 37.0608 55.4204 37.2924 54.839 37.294H4.387C3.80578 37.2922 3.2489 37.0604 2.838 36.6493C2.42711 36.2382 2.19558 35.6812 2.194 35.1ZM65.806 63.613C65.8044 64.1944 65.5728 64.7515 65.1616 65.1626C64.7505 65.5738 64.1934 65.8054 63.612 65.807H13.161C12.5796 65.8054 12.0225 65.5738 11.6114 65.1626C11.2002 64.7515 10.9686 64.1944 10.967 63.613V39.484H54.839C56.0016 39.4827 57.1162 39.0205 57.9386 38.1987C58.7609 37.3769 59.2239 36.2626 59.226 35.1V30.71H63.613C64.1935 30.7118 64.7498 30.9431 65.1606 31.3533C65.5714 31.7635 65.8034 32.3195 65.806 32.9V63.613Z" fill="black"/>
<path d="M20.3221 5.64502H4.51611V21.451H20.3221V5.64502ZM13.5481 19.193V16.935H15.8061V14.677H9.03211V16.935H11.2901V19.193H6.77411V14.677H9.03211V12.419H6.77411V7.90302H11.2901V10.161H9.03211V12.419H15.8061V10.161H13.5481V7.90302H18.0641V12.419H15.8061V14.677H18.0641V19.193H13.5481Z" fill="black"/>
<path d="M39.5119 27.3169H37.2539V35.2199H39.5119V27.3169Z" fill="black"/>
<path d="M43.8952 27.3169H41.6372V35.2199H43.8952V27.3169Z" fill="black"/>
<path d="M48.277 27.3169H46.019V35.2199H48.277V27.3169Z" fill="black"/>
<path d="M52.6599 27.3169H50.4019V35.2199H52.6599V27.3169Z" fill="black"/>
<path d="M55.0671 13.1479H29.0991V15.4059H55.0671V13.1479Z" fill="black"/>
<path d="M54.9412 17.5308H40.2642V19.7888H54.9412V17.5308Z" fill="black"/>
<path d="M50.68 5.64502H29.228V7.90302H50.68V5.64502Z" fill="black"/>
<path d="M22.5811 26.2969H4.51611V28.5549H22.5811V26.2969Z" fill="black"/>
<path d="M54.8522 5.64502H52.5942V7.90302H54.8522V5.64502Z" fill="black"/>
<path d="M27.4592 5.64502H25.2012V7.90302H27.4592V5.64502Z" fill="black"/>
<path d="M26.363 26.2969H24.105V28.5549H26.363V26.2969Z" fill="black"/>
</g>
<defs>
<clipPath id="clip0">
<rect width="68" height="68" fill="white"/>
</clipPath>
</defs>
</svg>
