<svg xmlns="http://www.w3.org/2000/svg" width="55" height="73" viewBox="0 0 55 73"><g><g><g><g><g><path fill="#011241" d="M51.242 66.983a3.012 3.012 0 0 1-3.009 3.008H6.116a3.012 3.012 0 0 1-3.008-3.008V6.816a3.012 3.012 0 0 1 3.008-3.009H36.2v9.025a6.023 6.023 0 0 0 6.016 6.017h9.026zM39.208 5.934l9.906 9.907h-6.898a3.012 3.012 0 0 1-3.008-3.009zm14.601 10.347L38.767 1.24a1.503 1.503 0 0 0-1.063-.441H6.116A6.023 6.023 0 0 0 .099 6.816v60.167A6.023 6.023 0 0 0 6.116 73h42.117a6.023 6.023 0 0 0 6.017-6.017V17.345c0-.4-.159-.782-.44-1.064z"/></g><g><path fill="#011241" d="M42.216 47.977c0 .675 0 .956-1.395.965-.41-.088-1.357-.647-2.527-1.443.425-.047.738-.07.914-.07 2.223 0 2.853.217 3.008.548zm-16.897-.783c.094-.262.185-.526.274-.794.558-1.674 1.06-3.178 1.508-4.533a60.708 60.708 0 0 0 2.019 2.113c.282.282.98.916 1.912 1.71a64.873 64.873 0 0 0-5.713 1.504zm-1.153-16.167c0-3.153.979-3.153 1.504-3.153 1.064 0 1.505 0 1.505 3.009 0 .634-.423 2.22-1.198 4.697-1.18-1.818-1.81-3.377-1.81-4.553zm-10.53 26.93c-.859 0-1.44-.404-1.503-.482 0-1.067 3.18-2.574 6.256-4.031.195-.093.394-.185.595-.28-2.26 3.275-4.494 4.794-5.347 4.794zm21.208-13c-1.393-1.096-2.716-2.223-3.598-3.104a51.834 51.834 0 0 1-3.053-3.314c1.383-4.276 1.99-6.481 1.99-7.656 0-4.993-1.804-6.017-4.513-6.017-2.058 0-4.512 1.07-4.512 6.16 0 2.245 1.23 4.97 3.666 8.137-.596 1.82-1.297 3.92-2.084 6.286a34.475 34.475 0 0 1-1.225 3.16c-.354.156-.698.316-1.03.482-1.196.598-2.331 1.136-3.384 1.635-4.804 2.274-7.977 3.779-7.977 6.749 0 2.156 2.343 3.491 4.513 3.491 2.797 0 7.02-3.735 10.105-10.028 3.202-1.263 7.183-2.2 10.325-2.785 2.518 1.936 5.298 3.788 6.645 3.788 3.73 0 4.513-2.156 4.513-3.965 0-3.556-4.063-3.556-6.017-3.556-.607 0-2.234.18-4.364.536z"/></g></g></g></g></g></svg>