<svg xmlns="http://www.w3.org/2000/svg" width="55" height="73" viewBox="0 0 55 73"><g><g><g><g><g><path fill="#011241" d="M30.14 39.423c-.366.732-.804 1.244-1.317 1.536a3.302 3.302 0 0 1-1.828.512c-.512 0-1.024-.073-1.463-.292-.44-.22-.805-.512-1.17-.878-.367-.366-.586-.878-.805-1.463-.147-.585-.293-1.244-.293-1.975 0-.732.073-1.39.293-1.975.219-.586.438-1.098.731-1.463.293-.366.732-.659 1.17-.878.44-.22.951-.293 1.464-.293.731 0 1.39.147 1.975.512a3.384 3.384 0 0 1 1.316 1.536c.293.659.44 1.537.44 2.488 0 1.024-.22 1.902-.513 2.633zm.22-8.412c-.951-.512-2.122-.805-3.438-.805-.951 0-1.83.146-2.634.439-.805.292-1.463.731-1.975 1.317a6.764 6.764 0 0 0-1.244 2.121 8.518 8.518 0 0 0-.439 2.78c0 .95.147 1.902.44 2.706.292.805.658 1.537 1.243 2.122.512.585 1.17 1.024 1.975 1.39.805.292 1.683.512 2.707.512 1.024 0 1.902-.147 2.706-.44.805-.292 1.463-.804 1.975-1.389a6.765 6.765 0 0 0 1.244-2.121c.293-.805.439-1.683.439-2.707 0-1.317-.22-2.487-.732-3.511-.585-1.098-1.316-1.902-2.267-2.414z"/></g><g><path fill="#011241" d="M51.354 68.026c0 .512-.22.95-.585 1.316-.366.366-.805.585-1.317.585H4.976c-.512 0-.951-.219-1.317-.585l-.073-.073c-.293-.366-.512-.805-.512-1.243V5.7c0-.512.22-.951.585-1.317.366-.365.805-.585 1.317-.585h32.772v8.266c0 1.463.585 2.78 1.61 3.804.95.951 2.34 1.536 3.803 1.536h8.193v50.622zM40.82 6.066l8.267 8.266h-6.072c-.585 0-1.17-.22-1.536-.658-.366-.366-.659-.951-.659-1.537V6.066zm13.534 9.144l-.074-.073v-.074L40.381 1.165l-.073-.074s-.073 0-.073-.073c0 0-.073 0-.073-.073C39.942.8 39.723.8 39.431.8H4.976c-1.39 0-2.634.585-3.511 1.463C.587 3.14.002 4.456.002 5.773v62.253c0 1.316.512 2.56 1.39 3.438l.073.073C2.342 72.415 3.659 73 4.975 73h44.55c1.39 0 2.634-.585 3.512-1.463.878-.878 1.463-2.195 1.463-3.511V15.94c0-.292-.073-.512-.146-.731z"/></g><g><path fill="#011241" d="M38.699 30.645a5.846 5.846 0 0 0-1.975 1.317c-.585.585-1.024 1.316-1.317 2.121-.292.805-.439 1.756-.439 2.78 0 .658.073 1.243.147 1.829.146.585.292 1.097.512 1.609.22.512.512.95.877 1.39.366.439.805.804 1.244 1.097.439.293.951.439 1.536.585a7.37 7.37 0 0 0 1.829.22c.878 0 1.682-.147 2.34-.44.66-.292 1.244-.658 1.683-1.096.44-.44.732-.951.951-1.39.22-.512.293-.951.293-1.317 0-.293-.146-.585-.366-.805-.22-.22-.512-.292-.804-.292-.366 0-.659.073-.805.292-.146.22-.293.512-.44.805-.292.731-.657 1.244-1.17 1.61a3.26 3.26 0 0 1-1.901.585c-.659 0-1.317-.147-1.83-.513-.511-.365-.95-.804-1.17-1.463-.292-.658-.439-1.463-.439-2.487 0-1.463.293-2.633.951-3.438.659-.805 1.463-1.243 2.56-1.243.66 0 1.244.146 1.683.438.44.293.878.805 1.17 1.463.22.366.366.659.586.805.146.146.439.22.731.22.293 0 .586-.147.732-.366.22-.22.293-.512.293-.805 0-.512-.22-1.097-.659-1.755-.439-.586-1.024-1.098-1.902-1.537-.804-.439-1.755-.658-2.78-.658-.512 0-1.316.146-2.121.439z"/></g><g><path fill="#011241" d="M14.998 40.594c-.22.146-.44.292-.659.365-.292.073-.512.147-.731.147h-2.999v-8.632h1.755c.805 0 1.463.073 2.049.292.585.147 1.024.585 1.39 1.244.365.658.585 1.61.585 2.853-.074 1.755-.512 2.999-1.39 3.73zm1.975-8.998c-.512-.44-1.097-.732-1.756-.951-.658-.146-1.39-.22-2.268-.22H9.584c-.585 0-.95.147-1.243.366-.22.22-.366.659-.366 1.244v9.436c0 .44 0 .732.146 1.024.074.293.22.44.44.586.219.146.585.22 1.097.22h3.365c.585 0 1.097-.074 1.609-.147.439-.073.878-.22 1.317-.366.439-.22.804-.439 1.097-.731.439-.44.805-.878 1.097-1.39a6.25 6.25 0 0 0 .659-1.756c.146-.658.22-1.317.22-2.121-.074-2.268-.732-4.024-2.05-5.194z"/></g></g></g></g></g></svg>