<svg width="75" height="76" viewBox="0 0 75 76" fill="none" xmlns="http://www.w3.org/2000/svg">
<g clip-path="url(#clip0)">
<path d="M39.9912 11.3218L35.5802 15.7348C37.1779 18.5761 37.8025 21.8621 37.3587 25.0915C36.9148 28.3209 35.427 31.3165 33.122 33.6215C30.817 35.9265 27.8213 37.4144 24.5919 37.8582C21.3625 38.3021 18.0766 37.6775 15.2352 36.0798L10.8242 40.4908L35.0102 64.6768L64.1792 35.5078L39.9912 11.3218Z" fill="#F0BC5E"/>
<path d="M64.839 22.2389C64.839 22.4622 64.7728 22.6804 64.6488 22.8661C64.5247 23.0518 64.3484 23.1965 64.1421 23.2819C63.9358 23.3674 63.7088 23.3897 63.4898 23.3462C63.2708 23.3026 63.0696 23.1951 62.9117 23.0372C62.7538 22.8793 62.6463 22.6781 62.6028 22.4591C62.5592 22.2401 62.5815 22.0131 62.667 21.8068C62.7524 21.6005 62.8972 21.4242 63.0828 21.3001C63.2685 21.1761 63.4868 21.1099 63.7101 21.1099C64.0095 21.1099 64.2967 21.2288 64.5084 21.4405C64.7201 21.6523 64.839 21.9394 64.839 22.2389Z" fill="black"/>
<path d="M54.3908 11.7896C54.3908 12.0129 54.3246 12.2312 54.2005 12.4169C54.0765 12.6025 53.9001 12.7473 53.6938 12.8327C53.4875 12.9182 53.2606 12.9405 53.0416 12.8969C52.8226 12.8534 52.6214 12.7459 52.4635 12.588C52.3056 12.4301 52.1981 12.2289 52.1545 12.0099C52.1109 11.7909 52.1333 11.5639 52.2187 11.3576C52.3042 11.1513 52.4489 10.975 52.6346 10.8509C52.8202 10.7269 53.0385 10.6606 53.2618 10.6606C53.5612 10.6606 53.8484 10.7796 54.0601 10.9913C54.2719 11.203 54.3908 11.4902 54.3908 11.7896Z" fill="black"/>
<path d="M72.9354 33.3078C74.2574 31.9857 75.0002 30.1925 75.0002 28.3228C75.0002 26.4531 74.2574 24.6599 72.9354 23.3378L52.1634 2.56479C50.8413 1.24273 49.0481 0.5 47.1784 0.5C45.3087 0.5 43.5155 1.24273 42.1934 2.56479L33.2004 11.5538C30.196 8.97923 26.3305 7.63348 22.3768 7.78557C18.4231 7.93766 14.6725 9.57638 11.8747 12.3741C9.07697 15.1719 7.43824 18.9225 7.28615 22.8762C7.13406 26.8299 8.47982 30.6954 11.0544 33.6998L2.06538 42.6908C1.41058 43.3455 0.891156 44.1229 0.536777 44.9784C0.182397 45.8339 0 46.7508 0 47.6768C0 48.6028 0.182397 49.5197 0.536777 50.3752C0.891156 51.2307 1.41058 52.008 2.06538 52.6628L22.8384 73.4348C24.1605 74.7569 25.9537 75.4996 27.8234 75.4996C29.6931 75.4996 31.4863 74.7569 32.8084 73.4348L52.0164 54.2268L55.6454 57.8558L63.4004 50.0998L59.7714 46.4708L61.6894 44.5528L65.3184 48.1818L73.0774 40.4228L69.4534 36.7898L72.9354 33.3078ZM22.9844 39.2078C25.9918 39.2119 28.9372 38.3525 31.4704 36.7316C34.0037 35.1107 36.0183 32.7965 37.2747 30.0641C38.5312 27.3317 38.9767 24.296 38.5583 21.3178C38.1398 18.3396 36.8751 15.5442 34.9144 13.2638L41.1304 7.04679L47.1784 13.0998V15.5188L59.9834 28.3228H62.4004L68.4484 34.3708L35.0784 67.7408L7.75938 40.4188L12.7644 35.4128C15.6053 37.8637 19.2323 39.2123 22.9844 39.2128V39.2078ZM50.4524 4.27579L71.2254 25.0478C72.0935 25.9164 72.5812 27.0942 72.5812 28.3223C72.5812 29.5504 72.0935 30.7282 71.2254 31.5968L70.1624 32.6598L63.4004 25.8998H60.9854L49.6004 14.5148V12.0998L42.8404 5.33879L43.9004 4.27579C44.7825 3.43361 45.9553 2.96369 47.1749 2.96369C48.3945 2.96369 49.5672 3.43361 50.4494 4.27579H50.4524ZM22.9844 10.1758C25.616 10.1758 28.1885 10.9561 30.3766 12.4181C32.5647 13.8801 34.2702 15.9581 35.2773 18.3893C36.2845 20.8206 36.5481 23.4959 36.0349 26.0769C35.5216 28.658 34.2545 31.0289 32.3939 32.8899C30.5332 34.7508 28.1625 36.0182 25.5815 36.5319C23.0005 37.0455 20.3252 36.7823 17.8938 35.7755C15.4624 34.7687 13.3841 33.0636 11.9218 30.8757C10.4595 28.6878 9.67878 26.1154 9.67838 23.4838C9.68262 19.9561 11.0859 16.5741 13.5803 14.0797C16.0747 11.5853 19.4567 10.182 22.9844 10.1778V10.1758ZM31.1004 71.7248C30.2182 72.567 29.0455 73.0369 27.8259 73.0369C26.6063 73.0369 25.4335 72.567 24.5514 71.7248L3.77638 50.9518C2.90821 50.0832 2.42052 48.9054 2.42052 47.6773C2.42052 46.4492 2.90821 45.2714 3.77638 44.4028L6.04938 42.1298L33.3704 69.4518L31.1004 71.7248ZM59.9834 50.0998L55.6454 54.4378L53.7274 52.5198L58.0654 48.1818L59.9834 50.0998ZM69.6604 40.4228L65.3224 44.7608L63.4004 42.8388L67.7424 38.4998L69.6604 40.4228Z" fill="black"/>
<path d="M10.4922 54.9408L12.0922 53.3408L18.8662 60.1148L17.2662 61.7148L10.4922 54.9408Z" fill="black"/>
<path d="M38.4863 50.1758L50.9053 37.7568L52.5053 39.3568L40.0833 51.7728L38.4863 50.1758Z" fill="black"/>
<path d="M34.3584 54.1159L36.6164 51.8589L38.2164 53.4589L35.9584 55.7169L34.3584 54.1159Z" fill="black"/>
<path d="M55.1406 15.8446L56.7406 14.2446L61.2566 18.7606L59.6566 20.3606L55.1406 15.8446Z" fill="black"/>
<path d="M22.8412 28.7328C22.2425 28.7322 21.6685 28.4942 21.2451 28.0708C20.8218 27.6475 20.5837 27.0735 20.5832 26.4748H18.3252C18.3282 27.4733 18.6623 28.4426 19.2752 29.2308C19.8881 30.0191 20.7452 30.5818 21.7122 30.8308V33.2488H23.9702V30.9908H27.3572V26.4748C27.3559 25.2774 26.8797 24.1296 26.033 23.2829C25.1864 22.4363 24.0385 21.9601 22.8412 21.9588C22.2425 21.9582 21.6685 21.7202 21.2451 21.2968C20.8218 20.8735 20.5837 20.2995 20.5832 19.7008V17.4428H22.8412C23.4399 17.4433 24.0139 17.6814 24.4373 18.1047C24.8606 18.528 25.0987 19.1021 25.0992 19.7008H27.3572C27.3542 18.7023 27.0201 17.7329 26.4072 16.9447C25.7943 16.1564 24.9372 15.5937 23.9702 15.3448V12.9268H21.7122V15.1848H18.3252V19.7008C18.3265 20.8981 18.8027 22.046 19.6494 22.8926C20.496 23.7392 21.6439 24.2154 22.8412 24.2168C23.4399 24.2173 24.0139 24.4554 24.4373 24.8787C24.8606 25.302 25.0987 25.8761 25.0992 26.4748V28.7328H22.8412Z" fill="black"/>
<path d="M29.0977 22.3228H31.3557V24.5807H29.0977V22.3228Z" fill="black"/>
<path d="M14.5498 22.3228H16.8078V24.5807H14.5498V22.3228Z" fill="black"/>
</g>
<defs>
<clipPath id="clip0">
<rect width="75" height="75" fill="white" transform="translate(0 0.5)"/>
</clipPath>
</defs>
</svg>
