<svg xmlns="http://www.w3.org/2000/svg" width="72" height="25" viewBox="0 0 72 25"><g><g><path fill="#b8b8b8" d="M48.372 3.007C48.372 1.332 49.67 0 51.302 0c1.631 0 2.929 1.332 2.929 3.007s-1.298 3.007-2.93 3.007c-1.632 0-2.929-1.375-2.929-3.007zM35.861 7.603c-.21.644-1.465 4.64-4.31 8.333 0 0 3.18 5.714 3.891 8.806h-7.364s-.88-4.123-2.636-6.873v6.873H19.29V2.577l6.152-1.245v12.242c2.3-2.878 3.263-5.627 3.389-5.97zm10.67-.129V12.5c-3.473.129-3.85 1.417-3.85 4.424v7.818h-5.983V15.12c0-5.025 2.803-7.56 8.285-7.732 0 0 1.004-.043 1.548.086zM9.038 10.052c5.524.386 8.788 3.178 8.788 7.388 0 3.78-2.93 7.56-9.499 7.56-3.013 0-5.607-.344-7.909-.945V18.6c1.507.644 4.06 1.331 6.654 1.331 2.385 0 3.808-.816 3.808-2.19 0-1.676-1.716-1.762-2.386-1.805C.837 15.421 0 10.74 0 8.763c0-3.437 2.385-7.431 9.08-7.431 3.892 0 5.984.644 7.783 1.288l.084.043V7.99h-.084a23.954 23.954 0 0 0-1.59-.645c-1.506-.472-3.682-.988-5.314-.988-.92 0-3.431 0-3.431 1.933 0 1.59 1.757 1.719 2.51 1.762zM48.33 7.646h5.942v17.14H48.33zM71.43 1.332v23.453h-5.942V2.448zM56.783 2.448l5.942-1.073v23.41h-5.942z"/></g></g></svg>