<svg xmlns="http://www.w3.org/2000/svg" width="121" height="25" viewBox="0 0 121 25"><g><g><g><g><g><g><path fill="#b8b8b8" d="M24.626 15.524c-1.67 6.696-8.453 10.772-15.151 9.102-6.695-1.67-10.771-8.452-9.1-15.149C2.042 2.78 8.826-1.294 15.522.375c6.697 1.67 10.773 8.453 9.103 15.15z"/></g><g><path fill="#011241" d="M15.518 10.155c-.405 1.583-2.9.778-3.709.581l.714-2.798c.81.197 3.416.565 2.995 2.217zm-.444 4.515c-.443 1.74-3.44.8-4.412.564l.787-3.085c.972.237 4.088.706 3.625 2.521zm3.276-4.49c.26-1.7-1.064-2.614-2.874-3.223l.587-2.303-1.433-.35-.572 2.243a61.152 61.152 0 0 0-1.149-.265l.576-2.256-1.433-.35-.587 2.302c-.312-.07-.618-.138-.916-.21l.002-.007-1.977-.483-.381 1.497s1.063.238 1.04.253c.581.142.686.517.669.815l-.67 2.623c.041.01.093.025.15.047l-.152-.037-.937 3.675c-.071.172-.251.431-.657.333.014.02-1.042-.254-1.042-.254l-.712 1.604 1.866.455c.347.085.687.174 1.022.257l-.593 2.33 1.432.349.587-2.305c.391.104.771.2 1.143.29l-.586 2.294 1.434.349.593-2.325c2.444.453 4.283.27 5.056-1.891.624-1.74-.03-2.745-1.317-3.4.937-.21 1.642-.813 1.83-2.057z"/></g><g><path fill="#b8b8b8" d="M31.923 21.11h-.568c-.15 0-.274-.007-.382-.02a2.472 2.472 0 0 1-.298-.046c-.094-.02-.206-.041-.331-.064l2.085-8.67a2.877 2.877 0 0 1 1.282-.666c.474-.101.856-.158 1.153-.158.905 0 1.528.286 1.865.855.337.57.506 1.36.506 2.373 0 .824-.138 1.616-.412 2.375a7.268 7.268 0 0 1-1.121 2.042 5.494 5.494 0 0 1-1.694 1.44 4.289 4.289 0 0 1-2.085.539zM36.03 7.562c-.484 0-.936.055-1.358.16a7.61 7.61 0 0 0-1.263.442L35.368 0l-4.899.76L25 23.766c.612.296 1.261.53 1.945.696.684.17 1.332.296 1.945.382.609.082 1.153.131 1.626.14.473.01.808.016.998.016 1.473 0 2.845-.28 4.107-.84a10.335 10.335 0 0 0 3.288-2.275 10.717 10.717 0 0 0 2.198-3.388c.538-1.297.805-2.673.805-4.13a9.84 9.84 0 0 0-.346-2.658 6.133 6.133 0 0 0-1.074-2.153A5.282 5.282 0 0 0 38.655 8.1c-.736-.356-1.61-.538-2.624-.538z"/></g><g><path fill="#b8b8b8" d="M49.66 5.574c.446 0 .864-.081 1.259-.252.39-.17.74-.396 1.035-.68.298-.286.536-.623.716-1.014.181-.391.271-.808.271-1.253 0-.8-.266-1.398-.796-1.79A2.94 2.94 0 0 0 50.361 0c-.447 0-.866.084-1.26.252a3.344 3.344 0 0 0-1.754 1.696c-.18.392-.27.808-.27 1.25 0 .805.264 1.402.798 1.79a2.94 2.94 0 0 0 1.785.586zm1.721 2.03h-4.75l-3.984 16.66h4.718z"/></g><g><path fill="#b8b8b8" d="M55.756 2.97l4.903-.764-1.204 4.935h5.25l-.947 3.883h-5.22l-1.39 5.856c-.128.489-.2.944-.22 1.368-.024.426.03.791.156 1.1.126.308.352.546.68.714.327.17.794.257 1.407.257a7.44 7.44 0 0 0 1.473-.144c.473-.095.952-.226 1.437-.398l.349 3.63c-.633.234-1.318.435-2.056.604-.739.171-1.614.254-2.625.254-1.455 0-2.582-.218-3.385-.65-.802-.436-1.37-1.032-1.709-1.786-.334-.75-.484-1.617-.442-2.592.043-.978.19-2.006.442-3.089z"/></g><g><path fill="#b8b8b8" d="M64.706 17.13c0-1.442.234-2.803.703-4.077a10.026 10.026 0 0 1 2.016-3.347c.87-.952 1.932-1.706 3.181-2.26 1.243-.55 2.635-.828 4.17-.828.96 0 1.818.09 2.572.271.758.183 1.444.42 2.064.716l-1.632 3.697a15.31 15.31 0 0 0-1.326-.462c-.458-.14-1.017-.208-1.678-.208-1.58 0-2.827.543-3.757 1.624-.925 1.082-1.391 2.538-1.391 4.365 0 1.083.234 1.958.705 2.628.468.67 1.333 1.003 2.588 1.003.62 0 1.218-.065 1.79-.19a8.837 8.837 0 0 0 1.536-.478l.353 3.79a17.16 17.16 0 0 1-1.982.622c-.726.177-1.59.269-2.59.269-1.322 0-2.441-.193-3.357-.573-.915-.385-1.672-.897-2.268-1.545a5.817 5.817 0 0 1-1.295-2.279 9.318 9.318 0 0 1-.402-2.737z"/></g><g><path fill="#b8b8b8" d="M90.325 11.524c.343.595.515 1.424.515 2.485 0 .657-.092 1.355-.272 2.086a7.537 7.537 0 0 1-.821 2.022 5.242 5.242 0 0 1-1.347 1.529c-.536.405-1.156.606-1.863.606-.9 0-1.518-.298-1.862-.89-.34-.597-.513-1.424-.513-2.487 0-.66.09-1.353.271-2.086a7.518 7.518 0 0 1 .822-2.023 5.218 5.218 0 0 1 1.346-1.53 3.019 3.019 0 0 1 1.86-.603c.9 0 1.521.298 1.864.89zm-.112 11.769a9.411 9.411 0 0 0 2.97-2.5 11.034 11.034 0 0 0 1.798-3.438c.403-1.276.607-2.552.607-3.825 0-1.018-.138-1.949-.418-2.786a6.205 6.205 0 0 0-1.232-2.182c-.55-.614-1.244-1.094-2.087-1.433-.847-.34-1.827-.511-2.94-.511-1.518 0-2.87.324-4.044.97a9.847 9.847 0 0 0-2.984 2.504 10.799 10.799 0 0 0-1.847 3.439 12.205 12.205 0 0 0-.624 3.824c0 1.017.135 1.946.415 2.785.28.838.69 1.566 1.236 2.18.546.618 1.236 1.094 2.07 1.434.835.34 1.82.51 2.954.51 1.563 0 2.939-.324 4.126-.971z"/></g><g><path fill="#b8b8b8" d="M103.333 5.574c.448 0 .867-.081 1.262-.252.392-.17.736-.396 1.035-.68.297-.286.536-.623.714-1.014.178-.391.274-.808.274-1.253 0-.8-.268-1.398-.799-1.79A2.94 2.94 0 0 0 104.034 0c-.445 0-.865.084-1.256.252-.392.171-.74.398-1.035.682a3.3 3.3 0 0 0-.718 1.014c-.18.392-.271.808-.271 1.25 0 .805.266 1.402.797 1.79.529.39 1.125.586 1.782.586zm1.723 2.03h-4.75l-3.983 16.66h4.72z"/></g><g><path fill="#b8b8b8" d="M107.603 7.75c.364-.103.771-.227 1.213-.362a18.407 18.407 0 0 1 3.342-.659c.68-.075 1.455-.111 2.316-.111 2.532 0 4.277.714 5.24 2.139.963 1.425 1.13 3.374.505 5.846l-2.208 8.926h-4.831l2.14-8.738c.13-.546.232-1.073.308-1.589.077-.51.072-.96-.017-1.35a1.618 1.618 0 0 0-.598-.945c-.318-.24-.795-.36-1.444-.36-.626 0-1.263.065-1.913.19L108.51 23.53h-4.833z"/></g></g></g></g></g></g></svg>