<svg xmlns="http://www.w3.org/2000/svg" width="57" height="44" viewBox="0 0 57 44"><g><g><g><g><g><g><path fill="#b8b8b8" d="M12.062 40.827c-.026.387.113.767.383 1.048.27.28.647.436 1.038.428a1.4 1.4 0 0 0 1.4-1.372 1.4 1.4 0 0 0-1.354-1.416 1.402 1.402 0 0 0-1.457 1.311zm3.777 2.287h-1.012v-.56a1.773 1.773 0 0 1-1.46.676 2.423 2.423 0 0 1-2.435-2.413 2.423 2.423 0 0 1 2.434-2.413c.568-.02 1.112.23 1.46.675v-.56h1.013zm34.565-1.243c.268.28.642.437 1.032.432a1.4 1.4 0 0 0 1.4-1.372 1.4 1.4 0 0 0-1.355-1.416 1.402 1.402 0 0 0-1.457 1.311c-.025.386.112.765.38 1.045zm4.975.915v.115h.107c.019.006.04.006.058 0a.047.047 0 0 0 0-.043.047.047 0 0 0 0-.043.102.102 0 0 0-.058 0zm.107-.082a.196.196 0 0 1 .127.038.12.12 0 0 1 .043.102.116.116 0 0 1-.034.087.17.17 0 0 1-.102.043l.141.16h-.112l-.131-.16h-.044v.16h-.093v-.425zm.112.545a.368.368 0 0 0 .112-.077.355.355 0 0 0 0-.483.36.36 0 0 0-.253-.106.368.368 0 0 0-.258.106.355.355 0 0 0 0 .483c.033.033.073.06.117.077.049.021.102.03.155.029h-.01c.047 0 .094-.01.137-.029zm.044-.753a.487.487 0 0 1 .15.097.446.446 0 0 1-.15.743.46.46 0 0 1-.185.038.487.487 0 0 1-.438-.28.45.45 0 0 1 .253-.598.49.49 0 0 1 .2-.034h-.003a.49.49 0 0 1 .173.034zm-1.874.618h-.974v-.56a1.773 1.773 0 0 1-1.46.676 2.423 2.423 0 0 1-2.434-2.413 2.423 2.423 0 0 1 2.434-2.413c.568-.02 1.111.23 1.46.675v-2.412h.974zM28.383 39.3c-.65-.022-1.2.476-1.236 1.12h2.433a1.139 1.139 0 0 0-.355-.802 1.16 1.16 0 0 0-.823-.318zm.034-.887c1.304 0 2.21.965 2.21 2.413v.386H27.17c.079.688.696 1.188 1.392 1.129a2.226 2.226 0 0 0 1.353-.483l.487.743a2.844 2.844 0 0 1-1.932.628 2.424 2.424 0 0 1-2.468-2.38 2.423 2.423 0 0 1 2.4-2.446zM41 41.86c.268.28.642.437 1.032.433a1.4 1.4 0 0 0 1.399-1.373 1.4 1.4 0 0 0-1.354-1.416 1.402 1.402 0 0 0-1.457 1.312c-.026.385.112.764.38 1.044zm3.388 1.253h-1.013v-.56a1.773 1.773 0 0 1-1.46.676 2.423 2.423 0 0 1-2.434-2.413 2.423 2.423 0 0 1 2.434-2.413c.568-.02 1.111.23 1.46.675v-.56h1.013zm-9.482-2.316a2.32 2.32 0 0 1 .703-1.75c.473-.46 1.118-.7 1.78-.663a2.448 2.448 0 0 1 1.673.55l-.486.81a2.056 2.056 0 0 0-1.217-.415 1.487 1.487 0 0 0-1.374 1.477c0 .772.598 1.415 1.374 1.477.44-.005.867-.15 1.217-.415l.486.81c-.469.385-1.066.581-1.674.55a2.363 2.363 0 0 1-1.779-.662 2.32 2.32 0 0 1-.703-1.75zm13.025-2.413c.246 0 .49.043.72.125l-.31.965a1.663 1.663 0 0 0-.634-.116c-.642 0-.973.425-.973 1.188v2.586H45.72V38.52h1.003v.56c.253-.432.724-.69 1.227-.676zm-27.546 1.312a3.019 3.019 0 0 0-1.46-.396c-.555 0-.886.232-.886.541 0 .309.35.396.789.454l.487.067c1.012.145 1.625.502 1.625 1.38 0 .879-.779 1.506-2.122 1.506a3.38 3.38 0 0 1-2.015-.598l.487-.782c.446.328.992.498 1.548.482.69 0 1.06-.202 1.06-.56 0-.26-.262-.405-.817-.482l-.487-.067c-1.042-.145-1.606-.609-1.606-1.361 0-.917.769-1.477 1.947-1.477a3.504 3.504 0 0 1 1.898.482zm13.484-1.312c.245 0 .489.043.72.125l-.311.965a1.663 1.663 0 0 0-.633-.116c-.643 0-.974.425-.974 1.188v2.586H31.66V38.52h1.003v.56c.253-.432.723-.69 1.226-.676zm-8.606 1.052h-1.655v2.104c0 .463.185.772.671.772.316-.01.625-.1.896-.26l.292.858a2.39 2.39 0 0 1-1.265.357c-1.198 0-1.616-.637-1.616-1.708v-2.123h-.945v-.917h.925v-1.4h1.022v1.4h1.665zM9.107 43.153v-2.568c0-.782-.33-1.216-1.022-1.216a1.1 1.1 0 0 0-.859.349 1.08 1.08 0 0 0-.28.877v2.558H5.924v-2.568c0-.782-.341-1.216-1.013-1.216-.324-.017-.64.11-.86.347-.22.237-.323.56-.279.879v2.538H2.75V38.52h1.012v.57c.3-.453.819-.713 1.363-.686a1.713 1.713 0 0 1 1.539.82c.353-.548.98-.863 1.635-.82.497-.029.983.156 1.333.507.35.35.532.834.497 1.327v2.895z"/></g><g><g><path fill="#b8b8b8" d="M21.083 30.985V3.667h15.333v27.318z"/></g><g><path fill="#b8b8b8" d="M21.658 17.375a17.29 17.29 0 0 1 6.693-13.661C21.167-1.884 10.85-1.07 4.65 5.587a17.263 17.263 0 0 0 0 23.572c6.2 6.656 16.517 7.471 23.701 1.873a17.29 17.29 0 0 1-6.693-13.657z"/></g><g><path fill="#b8b8b8" d="M56.77 17.377c0 6.652-3.83 12.72-9.865 15.626a17.648 17.648 0 0 1-18.488-1.969 17.319 17.319 0 0 0 6.695-13.66c0-5.33-2.468-10.365-6.695-13.658a17.648 17.648 0 0 1 18.488-1.97c6.035 2.907 9.866 8.975 9.866 15.626z"/></g><g><path fill="#b8b8b8" d="M56.373 28.18v-.511l-.19.439h-.132l-.19-.44v.508h-.126V27.5h.156l.204.483.205-.483h.175v.676zm-1.125-.004v-.56H55V27.5h.58v.116h-.23v.56z"/></g></g></g></g></g></g></g></svg>