<svg xmlns="http://www.w3.org/2000/svg" width="102" height="37" viewBox="0 0 102 37"><g><g><g><g><g><g><path fill="#b8b8b8" d="M16.58 32.895c-7.527 0-14.11-5.03-16.03-12.25-1.92-7.22 1.303-14.819 7.85-18.503C14.946-1.543 23.173-.39 28.434 4.95a16.35 16.35 0 0 1 2.374 19.936.1.1 0 0 1-.183-.041c-.565-4.038-3.056-6.266-6.678-6.916-.303-.055-.372-.25.042-.285 1.159-.1 2.326-.078 3.48.066.048-.42.07-.841.07-1.263 0-4.398-2.668-8.364-6.763-10.048A11.022 11.022 0 0 0 8.832 8.755a10.81 10.81 0 0 0-2.377 11.85c1.696 4.062 5.692 6.712 10.125 6.712h.514a14.564 14.564 0 0 1-.207-2.94c.027-.664.165-.756.465-.24 1.518 2.591 3.694 4.956 7.923 5.88 3.46.756 6.927 1.65 10.676 6.358.331.418-.176.842-.558.5-3.815-3.368-7.261-4.449-10.438-4.449-3.536 0-5.944.469-8.375.469zm9.61-6.44c.738.619.962 1.368.572 1.871-.24.295-.608.46-.99.442-.412 0-.811-.142-1.128-.404-.669-.582-.866-1.523-.43-2.053a.98.98 0 0 1 .782-.326c.441.013.863.18 1.194.47zm3.4-1.572c.108.723-.12 1.027-.344 1.027-.224 0-.566-.29-.938-.87-.373-.577-.504-1.22-.321-1.55a.52.52 0 0 1 .69-.194c.61.225.852 1.16.914 1.587zm22.977-3.764l-1.907-2.293a.364.364 0 0 1-.053-.39.37.37 0 0 1 .335-.212h3.998a5.56 5.56 0 0 0 .297-1.787c0-2.857-2.142-5.318-5.085-5.318-2.942 0-5.084 2.464-5.084 5.318 0 2.854 2.142 5.284 5.084 5.284.844.008 1.675-.2 2.415-.602zm8.648 3.867a.34.34 0 0 1 .085.4.346.346 0 0 1-.361.196h-4.364a.599.599 0 0 1-.459-.213l-.738-.882c-4.146 2.66-9.647 1.79-12.753-2.018a9.527 9.527 0 0 1 .67-12.796c3.487-3.468 9.05-3.768 12.895-.695a9.531 9.531 0 0 1 2.065 12.648zm40.643-17.518c.091.088.142.209.142.335v17.293a.471.471 0 0 1-.473.469h-3.56a.47.47 0 0 1-.472-.47V7.804a.47.47 0 0 1 .473-.469h3.549a.475.475 0 0 1 .341.134zm-5.96.065a.46.46 0 0 1 .104.407l-5.864 17.3a.472.472 0 0 1-.449.318h-3.16a.472.472 0 0 1-.448-.319L82.65 15.133 79.217 25.24a.472.472 0 0 1-.449.319h-3.163a.472.472 0 0 1-.448-.319L69.293 7.94a.46.46 0 0 1 .066-.42.477.477 0 0 1 .382-.196h3.974c.21.001.395.141.452.342l3.194 10.23 3.45-10.23a.472.472 0 0 1 .448-.318h2.78c.203 0 .383.128.449.318l3.449 10.23 3.153-10.22a.472.472 0 0 1 .451-.342h3.984a.477.477 0 0 1 .373.199zm-28.116.27v17.293a.47.47 0 0 1-.472.469h-3.56a.474.474 0 0 1-.473-.47V7.804a.467.467 0 0 1 .473-.469h3.56a.47.47 0 0 1 .472.47z"/></g></g></g></g></g></g></svg>