<svg xmlns="http://www.w3.org/2000/svg" width="58" height="36" viewBox="0 0 58 36"><g><g><g><g><g><g><path fill="#b8b8b8" d="M0 36v-5.4h57.6V36z"/></g><g><path fill="#b8b8b8" d="M0 5.4V0h57.6v5.4z"/></g><g><path fill="#b8b8b8" d="M28.114 11.056l-3.058 13.969h-3.698l3.058-13.969zm18.69 9.029l-1.135-5.227-1.965 5.227zm.567 2.828h-4.76l-.756 2.101h-3.887l5.59-12.933a1.686 1.686 0 0 1 1.586-1.035h3.172L51.3 25.014h-3.435zM31.717 25.2a10.844 10.844 0 0 1-4.118-.738l.683-3.054a7.809 7.809 0 0 0 3.813.881c1.061 0 2.228-.44 2.228-1.363 0-.594-.526-1.066-1.923-1.732-1.397-.656-3.288-1.762-3.246-3.792.042-2.685 2.605-4.601 6.272-4.601 1.187 0 2.363.205 3.477.625l-.64 2.952a7.263 7.263 0 0 0-3.667-.626c-1.093.144-1.587.667-1.587 1.18-.031 1.618 5.18 1.834 5.18 5.523-.032 2.91-2.564 4.786-6.472 4.745zM22.82 11.056l-6.01 13.969H12.88L9.94 13.865c-.19-.698-.337-.923-.872-1.22A15.279 15.279 0 0 0 5.4 11.466l.074-.41h6.303c.851 0 1.576.615 1.702 1.435l1.544 8.065 3.856-9.51h3.94z"/></g></g></g></g></g></g></svg>