<svg xmlns="http://www.w3.org/2000/svg" width="155" height="39" viewBox="0 0 155 39"><g><g><g><g><g><g><path fill="#b8b8b8" d="M134.463 0a18.832 18.832 0 0 1 8.415 1.968c.4.192.799.404 1.197.638l-1.767 1.606-2.655-2.791-4.485 4.09-2.662-2.952-8.353 7.632 5.353 5.995-2.105 1.877 5.275 6.003-2.093 1.874 7.535 8.518 4.473-4.185 3.876 4.484a20.505 20.505 0 0 1-2.531 1.708c-7.006 4.032-15.745 3.196-21.886-2.093-6.142-5.29-8.381-13.909-5.608-21.587C119.215 5.107 126.41.002 134.463 0z"/></g><g><path fill="#b8b8b8" d="M130.867 17.972l4.561-4.105 4.105 4.561-4.561 4.105z"/></g><g><path fill="#b8b8b8" d="M134.333 25.774l4.562-4.107 4.105 4.56-4.562 4.106z"/></g><g><path fill="#b8b8b8" d="M128.267 10.172l4.563-4.105 4.103 4.561-4.559 4.105z"/></g><g><path fill="#b8b8b8" d="M136.067 8.485l3.646-3.285L143 8.848l-3.65 3.285z"/></g><g><path fill="#b8b8b8" d="M142.133 22.352l3.649-3.285 3.285 3.648L145.418 26z"/></g><g><path fill="#b8b8b8" d="M145.6 29.285L149.248 26l3.285 3.648-3.648 3.285z"/></g><g><path fill="#b8b8b8" d="M146.467 13.321l2.282-2.054 2.051 2.279-2.279 2.054z"/></g><g><path fill="#b8b8b8" d="M143.867 6.388l2.281-2.055 2.052 2.283-2.281 2.05z"/></g><g><path fill="#b8b8b8" d="M149.933 20.252l2.281-2.052 2.053 2.28-2.281 2.053z"/></g><g><path fill="#b8b8b8" d="M139.533 15.418l3.649-3.285 3.285 3.649-3.649 3.285z"/></g><g><path fill="#b8b8b8" d="M9.136 15.882h-.158L6.03 26.867H3.618L0 11.267h2.5L5 22.905h.158l2.903-11.638h1.975l3.116 11.638h.154l2.28-11.638H18.2l-3.618 15.6H12.17z"/></g><g><path fill="#b8b8b8" d="M23.173 17.045c1.203 0 2.335.901 2.445 3.16h-5.087c.244-2.149 1.286-3.16 2.642-3.16zm.688 8.316c-2.288 0-3.377-1.141-3.377-3.719h7.25v-.795c0-3.505-1.71-5.247-4.49-5.247-3.334 0-5.044 2.365-5.044 5.631 0 3.4 1.533 5.635 5.268 5.635a8.039 8.039 0 0 0 3.931-.988v-1.635c-1.234.71-2.335 1.122-3.538 1.118z"/></g><g><path fill="#b8b8b8" d="M32.633 18.461a4.6 4.6 0 0 1 2.418-.762c1.487 0 2.508.92 2.508 3.772 0 3.637-1.244 4.67-2.885 4.67a5.087 5.087 0 0 1-2.04-.357zm0-8.061l-2.3.56v15.673a10.184 10.184 0 0 0 4.318 1.1c3.218 0 5.216-2.045 5.216-6.242 0-3.594-1.492-5.524-4.24-5.524a6.612 6.612 0 0 0-2.994.83z"/></g><g><path fill="#b8b8b8" d="M48.991 23.567h.106l4.584-12.3h2.652v15.6H54.02V15.559h-.194l-4.364 11.308H48.09L43.72 15.823h-.193v11.044H41.6v-15.6h2.591z"/></g><g><path fill="#b8b8b8" d="M64.984 25.36c-1.638 0-2.824-1.227-2.824-4.129 0-2.9 1.255-4.125 2.824-4.125 1.57 0 2.824 1.224 2.824 4.125 0 2.947-1.186 4.13-2.824 4.13zM65 26.868c3.122 0 5.2-1.959 5.2-5.636 0-3.76-2.19-5.631-5.2-5.631-3.01 0-5.2 1.867-5.2 5.631 0 3.677 2.078 5.636 5.2 5.636z"/></g><g><path fill="#b8b8b8" d="M71.067 17.227a11.879 11.879 0 0 1 5.788-1.627c2.725 0 3.745 1.035 3.745 3.3v7.967h-2.36v-7.46c0-1.74-.883-2.048-2.043-2.048a6.413 6.413 0 0 0-2.77.778v8.73h-2.36z"/></g><g><path fill="#b8b8b8" d="M84.665 20.205c.243-2.149 1.285-3.16 2.645-3.16 1.2 0 2.335.901 2.446 3.16zm3.333 5.156c-2.288 0-3.377-1.141-3.377-3.719h7.246v-.795c0-3.505-1.71-5.247-4.49-5.247-3.334 0-5.044 2.365-5.044 5.631 0 3.4 1.534 5.635 5.268 5.635a8.035 8.035 0 0 0 3.932-.988v-1.635c-1.223.71-2.336 1.122-3.535 1.118z"/></g><g><path fill="#b8b8b8" d="M100.755 16.467h2.378l-4.038 10.987c-1.122 3.03-2.49 4.613-5.066 4.613v-1.8c1.522 0 2.466-1.189 3.005-2.814l-4.3-10.986h2.465l2.87 8.068h.134z"/></g></g></g></g></g></g></svg>