<svg xmlns="http://www.w3.org/2000/svg" width="138" height="31" viewBox="0 0 138 31"><g><g><g><g><g><g><path fill="#b8b8b8" d="M5.495 26v-8.444L0 2.44h2.764l4.05 11.664L11.461 0H14L8.034 17.663V26z"/></g><g><path fill="#b8b8b8" d="M70.64 9.018l-3.075 7.837L71 25.759h-2.65l-2.553-6.915-2.487 6.915h-2.52l3.438-8.672-3.108-8.075h2.648l2.127 6.086 2.258-6.086zM52.71 15.862h4.222c0-2.858-.458-4.952-1.931-4.952-1.57-.005-2.128 1.956-2.291 4.952zM55.523 26c-3.402 0-5.497-2.766-5.497-7.909 0-5.383 1.474-9.303 4.974-9.303 2.748 0 4.549 2.092 4.549 7.773v1.43h-6.873c0 3.788 1.049 5.782 3.076 5.782a5.336 5.336 0 0 0 3.154-1.137l.588 1.995a6.157 6.157 0 0 1-3.971 1.36zM44.92 11.712a2.463 2.463 0 0 0-1.928-.8c-2.062 0-3.046 3.16-3.046 6.582 0 3.92.72 6.312 2.585 6.312a2.64 2.64 0 0 0 2.39-1.305zm-7.69 6.302c0-6.213 2.292-9.237 5.596-9.237a3.734 3.734 0 0 1 2.094.631V2h2.545v23.76h-1.907l-.196-1.329h-.164c-.719.93-1.634 1.56-2.977 1.56-3.222 0-4.99-2.79-4.99-7.974zm-9.225 7.745h-2.552V8.98h2.552v1.46h.163a4.31 4.31 0 0 1 3.24-1.659c2.16 0 3.303 1.228 3.303 3.787V25.76h-2.585V12.8c0-1.261-.545-1.695-1.536-1.695-1.09 0-1.997.83-2.585 1.66zm-8.248-8.738h-.294c-3.173 0-3.86 1.427-3.86 3.596 0 1.936.621 3.19 1.929 3.19.91-.05 1.739-.546 2.225-1.328zm2.817 8.738h-2.16a7.999 7.999 0 0 1-.23-1.328h-.165a3.64 3.64 0 0 1-3.062 1.56c-2.356 0-3.958-1.795-3.958-5.084 0-3.596 1.798-5.847 6.412-5.847h.36v-.996c0-2.194-.72-3.126-2.158-3.126-1.31 0-2.421.7-3.268 1.463l-.49-2.293a6.504 6.504 0 0 1 3.919-1.328c2.912 0 4.514 1.262 4.514 5.317v7.875a24.075 24.075 0 0 0 .286 3.787z"/></g><g><path fill="#b8b8b8" d="M79.032 9.269l-.688 15.726H77L78.017 2h1.8l3.507 14.19c.263 1.045.446 2.11.545 3.182h.066c.123-1.072.328-2.135.613-3.177l3.605-14.19h1.833L91 25h-1.57l-.688-15.854c-.098-1.802-.065-3.186-.065-4.6h-.101a32.44 32.44 0 0 1-.786 4.15l-3.272 12.703h-1.276L79.997 8.696a26.669 26.669 0 0 1-.753-4.118h-.098a188.8 188.8 0 0 1-.114 4.69z"/></g><g><path fill="#b8b8b8" d="M98 24.764c-1.916 0-3.476-2.172-3.476-7.261 0-4.96 1.56-7.23 3.476-7.23s3.473 2.103 3.473 7.23c0 4.927-1.557 7.261-3.473 7.261zM98 26c2.838 0 5-3.181 5-8.594C103 11.798 100.824 9 98 9s-5 3.154-5 8.6c0 5.575 2.162 8.4 5 8.4z"/></g><g><path fill="#b8b8b8" d="M107.54 13.835V26H106V9.341h1.406l.069 2.752h.065C107.995 10.86 109.303 9 111.53 9c2.227 0 3.47 1.376 3.47 4.034V26h-1.537V13.24c0-1.984-.72-2.908-2.227-2.908-1.638 0-2.878 1.39-3.696 3.503z"/></g><g><path fill="#b8b8b8" d="M122.775 10.268c1.666 0 2.98 1.946 2.709 6.287h-5.959c.13-4.077 1.53-6.281 3.25-6.287zm-3.283 7.485h7.42c.52-5.801-1.303-8.753-4.134-8.753-2.765 0-4.778 3.16-4.778 8.508 0 5.348 1.595 8.492 5.079 8.492a4.748 4.748 0 0 0 3.833-1.854l-.488-1.23a4.19 4.19 0 0 1-3.321 1.75c-2.375 0-3.546-2.43-3.611-6.913z"/></g><g><path fill="#b8b8b8" d="M128.743 30.934l-.17-1.46c.344.088.697.133 1.051.133 1.153 0 1.978-1.103 2.478-2.948l.135-.497L128 9h1.596l2.715 10.9a35.64 35.64 0 0 1 .712 3.777h.104a53.9 53.9 0 0 1 .814-3.776L136.588 9H138l-4.379 17.56c-.564 2.253-1.593 4.44-4.002 4.44-.294 0-.586-.023-.876-.066z"/></g></g></g></g></g></g></svg>