<svg xmlns="http://www.w3.org/2000/svg" width="89" height="25" viewBox="0 0 89 25"><g><g><path fill="#b8b8b8" d="M49.415 2.637l-5.603 12.138h-.568V0h-7.96v25h6.758a4.562 4.562 0 0 0 4.136-2.637l5.604-12.129h.567V25h7.96V0h-6.757a4.562 4.562 0 0 0-4.137 2.637zM63.605 25h8.01v-7.393h8.058c4.215 0 7.804-2.382 9.192-5.732h-25.26zM19.529 3.281l-3.315 11.485h-.567L12.332 3.28A4.558 4.558 0 0 0 7.95 0H0v25h7.96V10.225h.568L13.085 25h5.691l4.548-14.775h.567V25h7.96V0h-7.95a4.555 4.555 0 0 0-4.372 3.281z"/></g></g></svg>