<svg xmlns="http://www.w3.org/2000/svg" width="20" height="21" viewBox="0 0 20 21"><g><g><g><path fill="#d99a05" d="M15.898 6.36a1.76 1.76 0 0 1-1.757-1.758c0-.97.788-1.758 1.757-1.758.97 0 1.758.788 1.758 1.758a1.76 1.76 0 0 1-1.758 1.757zm-5.859 9.374a5.28 5.28 0 0 1-5.273-5.273 5.28 5.28 0 0 1 5.273-5.274 5.28 5.28 0 0 1 5.274 5.274 5.28 5.28 0 0 1-5.274 5.273zM17.07.5H2.93A2.933 2.933 0 0 0 0 3.43v14.14a2.933 2.933 0 0 0 2.93 2.93h14.14A2.933 2.933 0 0 0 20 17.57V3.43A2.933 2.933 0 0 0 17.07.5z"/></g><g><path fill="#d99a05" d="M15.898 4.016a.586.586 0 1 0 .001 1.172.586.586 0 0 0 0-1.172z"/></g><g><path fill="#d99a05" d="M10.04 6.36a4.107 4.107 0 0 0-4.102 4.101 4.107 4.107 0 0 0 4.101 4.102 4.107 4.107 0 0 0 4.102-4.102 4.107 4.107 0 0 0-4.102-4.102z"/></g></g></g></svg>