<svg id="Group_74" data-name="Group 74" xmlns="http://www.w3.org/2000/svg" width="49.733" height="40" viewBox="0 0 49.733 40">
  <g id="Group_24" data-name="Group 24" transform="translate(0 25.968)">
    <g id="Group_23" data-name="Group 23">
      <path id="Path_42" data-name="Path 42" d="M47.658,243.739l-19.746-.02v2.03a1.761,1.761,0,0,1-1.756,1.756H23.583a1.756,1.756,0,0,1-1.761-1.73v-2.03H2.1a3.506,3.506,0,0,1-2.1-.705v11.672a2.37,2.37,0,0,0,2.36,2.36H47.333a2.37,2.37,0,0,0,2.4-2.339h0V243.059A3.506,3.506,0,0,1,47.658,243.739Z" transform="translate(0 -243.039)" fill="#d99a05"/>
    </g>
  </g>
  <g id="Group_26" data-name="Group 26">
    <g id="Group_25" data-name="Group 25" transform="translate(0 0)">
      <path id="Path_43" data-name="Path 43" d="M47.353,44.966H34.509V41.379a3.032,3.032,0,0,0-3.02-3.02H18.224A3.045,3.045,0,0,0,15.179,41.4v3.588H2.38A2.37,2.37,0,0,0,0,47.326V61.48a2.081,2.081,0,0,0,2.076,2.076H21.822v-2.03a1.761,1.761,0,0,1,1.756-1.756h2.568A1.756,1.756,0,0,1,27.912,61.5v2.03H47.643a2.081,2.081,0,0,0,2.091-2.05V47.326A2.37,2.37,0,0,0,47.353,44.966Zm-15.93,0H18.31v-3.5H31.423v3.5Z" transform="translate(0 -38.359)" fill="#d99a05"/>
    </g>
  </g>
</svg>
