<svg xmlns="http://www.w3.org/2000/svg" width="19" height="19" viewBox="0 0 19 19"><g><g><g><path fill="#d99a05" d="M13.337 13.619a.317.317 0 0 0-.074.629c3.33.392 5.104 1.448 5.104 2.06 0 .86-3.373 2.059-8.867 2.059-5.494 0-8.867-1.2-8.867-2.059 0-.612 1.774-1.668 5.104-2.06a.317.317 0 0 0-.074-.63C2.329 14.013 0 15.119 0 16.309 0 17.646 3.263 19 9.5 19s9.5-1.354 9.5-2.692c0-1.19-2.329-2.296-5.663-2.69z"/></g><g><path fill="#d99a05" d="M9.5 3.8a2.22 2.22 0 0 1 2.217 2.217A2.22 2.22 0 0 1 9.5 8.233a2.22 2.22 0 0 1-2.217-2.216A2.22 2.22 0 0 1 9.5 3.8zm-.056 13.54l4.858-7.017c1.822-2.429 1.559-6.422-.564-8.544A6.032 6.032 0 0 0 9.444 0 6.033 6.033 0 0 0 5.15 1.779C3.027 3.9 2.764 7.894 4.579 10.314z"/></g></g></g></svg>