<svg xmlns="http://www.w3.org/2000/svg" width="70" height="70" viewBox="0 0 70 70"><g><g><g><path d="M8.508 55.379a3.638 3.638 0 0 1-2.588 1.073 3.665 3.665 0 0 1-3.662-3.66c0-.98.38-1.899 1.073-2.59l11.346-11.347 5.178 5.177zM18.065 0v14.957h2.258V2.258h47.419v65.484h-47.42V46.758l2.726-2.726-1.129-1.129 3.533-3.533-1.597-1.596-3.532 3.533-2.921-2.921 3.56-3.571-1.598-1.594-3.559 3.569-1.128-1.128L1.734 48.605A5.876 5.876 0 0 0 0 52.79a5.926 5.926 0 0 0 5.92 5.919c1.579 0 3.066-.616 4.185-1.733l7.96-7.961V70H70V0z"/></g><g><path fill="#f0bc5e" d="M48.548 23.71c0 7.47-6.077 13.548-13.548 13.548-7.47 0-13.548-6.078-13.548-13.548 0-7.471 6.077-13.549 13.548-13.549 7.47 0 13.548 6.078 13.548 13.549zm5.646 0c0-10.584-8.61-19.194-19.194-19.194s-19.194 8.61-19.194 19.194c0 10.583 8.61 19.193 19.194 19.193s19.194-8.61 19.194-19.193z"/></g><g><path d="M35 22.58a1.13 1.13 0 0 1-1.129-1.128v-1.13H35a1.13 1.13 0 0 1 1.129 1.13h2.258c0-1.47-.947-2.712-2.258-3.18v-2.466h-2.258v2.259h-2.258v3.387A3.391 3.391 0 0 0 35 24.839a1.13 1.13 0 0 1 1.129 1.129v1.129H35a1.13 1.13 0 0 1-1.129-1.13h-2.258c0 1.47.947 2.713 2.258 3.18v2.466h2.258v-2.258h2.258v-3.387A3.391 3.391 0 0 0 35 22.58z"/></g><g><path d="M40.645 23.71a1.129 1.129 0 1 1 2.258 0 1.129 1.129 0 0 1-2.258 0z"/></g><g><path d="M27.097 23.71a1.129 1.129 0 1 1 2.258 0 1.129 1.129 0 0 1-2.258 0z"/></g><g><path d="M47.42 23.71c0 6.847-5.572 12.419-12.42 12.419s-12.42-5.572-12.42-12.42c0-6.847 5.572-12.419 12.42-12.419s12.42 5.572 12.42 12.42zm2.257 0c0-8.093-6.584-14.678-14.677-14.678S20.323 15.617 20.323 23.71 26.907 38.387 35 38.387s14.677-6.584 14.677-14.677z"/></g><g><g><path fill="#f0bc5e" d="M29.355 65.484H22.58V51.935h6.774z"/></g><g><path fill="#f0bc5e" d="M65.484 65.484H58.71V33.87h6.774z"/></g><g><path fill="#f0bc5e" d="M56.452 65.484h-6.775V38.387h6.775z"/></g><g><path fill="#f0bc5e" d="M47.42 65.484h-6.775v-22.58h6.774z"/></g><g><path fill="#f0bc5e" d="M38.387 65.484h-6.774V47.419h6.774z"/></g><g><path fill="#f0bc5e" d="M65.484 28.226h-9.032V6.774h-9.033V4.516h18.065z"/></g></g><g><path d="M47.42 4.516h2.257v2.258H47.42z"/></g><g><path d="M51.935 4.516h13.549v2.258H51.935z"/></g><g><path d="M56.452 9.032h9.032v2.258h-9.032z"/></g><g><path d="M56.452 13.548h9.032v2.258h-9.032z"/></g><g><path d="M56.452 18.065h9.032v2.258h-9.032z"/></g><g><path d="M56.452 22.58h9.032v2.259h-9.032z"/></g><g><path d="M56.452 27.097h9.032v2.258h-9.032z"/></g></g></g></svg>