<svg xmlns="http://www.w3.org/2000/svg" width="70" height="70" viewBox="0 0 70 70"><g><g><g><g><path fill="#f0bc5e" d="M36.129 16.935c0-6.235 5.055-11.29 11.29-11.29 6.236 0 11.29 5.055 11.29 11.29 0 6.236-5.054 11.29-11.29 11.29-6.235 0-11.29-5.054-11.29-11.29z"/></g><g><path fill="#f0bc5e" d="M46.478 46.488c-2.108-.976-6.612 1.162-10.623 5.173-4.41 4.409-6.554 9.413-4.79 11.178 1.763 1.763 6.767-.38 11.175-4.79 2.069-2.07 3.64-4.27 4.541-6.204z"/></g><g><path fill="#f0bc5e" d="M46.29 48.548c0-6.235 5.055-11.29 11.29-11.29 6.236 0 11.291 5.055 11.291 11.29 0 6.236-5.055 11.29-11.29 11.29-6.236 0-11.29-5.054-11.29-11.29z"/></g><g><path fill="#f0bc5e" d="M33.745 24.839h-7.777a3.391 3.391 0 0 0-3.387 3.387 3.391 3.391 0 0 0 3.387 3.387h3.387a1.13 1.13 0 0 1 0 2.258h-1.13a3.391 3.391 0 0 0-3.386 3.387 3.391 3.391 0 0 0 3.387 3.387h9.27a20.256 20.256 0 0 0 3.979-9.07 15.846 15.846 0 0 1-7.73-6.736z"/></g><g><path fill="#f0bc5e" d="M18.065 24.839a3.391 3.391 0 0 0-3.388-3.387h-1.129a1.13 1.13 0 0 1 0-2.258h7.904a3.391 3.391 0 0 0 3.387-3.388 3.391 3.391 0 0 0-3.387-3.387H8.692c-4.61 3.726-7.563 9.419-7.563 15.807h13.548a3.391 3.391 0 0 0 3.388-3.387z"/></g><g><path fill="#f0bc5e" d="M22.58 39.516a3.391 3.391 0 0 0-3.386-3.387h-5.646A1.13 1.13 0 0 1 12.42 35a3.391 3.391 0 0 0-3.387-3.387H1.434C2.8 39.737 8.97 46.217 16.935 48.028v-3.996a1.13 1.13 0 0 1 1.13-1.129h1.129a3.391 3.391 0 0 0 3.387-3.387z"/></g></g><g><path d="M47.42 20.323a1.13 1.13 0 0 1-1.13-1.13h-2.258c0 1.47.948 2.712 2.258 3.18v2.466h2.258V22.58h2.258v-3.387a3.391 3.391 0 0 0-3.387-3.388 1.13 1.13 0 0 1-1.129-1.129v-1.129h1.13a1.13 1.13 0 0 1 1.128 1.13h2.258c0-1.47-.947-2.713-2.258-3.18V9.032H46.29v2.258h-2.258v3.387a3.391 3.391 0 0 0 3.387 3.388 1.13 1.13 0 0 1 1.13 1.129v1.129z"/></g><g><path d="M47.42 6.774c5.603 0 10.16 4.56 10.16 10.161 0 5.603-4.557 10.162-10.16 10.162-5.604 0-10.162-4.56-10.162-10.162 0-5.602 4.558-10.16 10.161-10.16zm0 22.58c6.847 0 12.419-5.57 12.419-12.419 0-6.847-5.572-12.419-12.42-12.419C40.572 4.516 35 10.088 35 16.936c0 6.847 5.572 12.419 12.42 12.419z"/></g><g><path d="M53.065 16.935a1.129 1.129 0 1 1 2.258 0 1.129 1.129 0 0 1-2.258 0z"/></g><g><path d="M39.516 16.935a1.129 1.129 0 1 1 2.258 0 1.129 1.129 0 0 1-2.258 0z"/></g><g><path d="M57.58 51.935a1.13 1.13 0 0 1-1.128-1.129h-2.258c0 1.47.947 2.712 2.258 3.18v2.466h2.258v-2.258h2.258v-3.388a3.391 3.391 0 0 0-3.387-3.387 1.13 1.13 0 0 1-1.13-1.129v-1.129h1.13a1.13 1.13 0 0 1 1.129 1.13h2.258c0-1.47-.948-2.713-2.258-3.18v-2.466h-2.258v2.258h-2.258v3.387a3.391 3.391 0 0 0 3.387 3.387 1.13 1.13 0 0 1 1.129 1.13v1.128z"/></g><g><path d="M63.226 48.548a1.129 1.129 0 1 1 2.258 0 1.129 1.129 0 0 1-2.258 0z"/></g><g><path d="M49.677 48.548a1.129 1.129 0 1 1 2.258 0 1.129 1.129 0 0 1-2.258 0z"/></g><g><path d="M57.58 63.226c-6.202 0-10.16-2.005-10.16-3.387 0-.592.787-1.312 2.05-1.907a12.355 12.355 0 0 0 8.11 3.036c3.101 0 5.933-1.15 8.112-3.035 1.263.594 2.05 1.313 2.05 1.906 0 1.382-3.958 3.387-10.161 3.387zm7.904 3.134v-2.117c.843-.303 1.61-.656 2.258-1.065v1.177c0 .622-.808 1.37-2.258 2.005zm-9.032 1.36c-1.721-.07-3.235-.298-4.517-.615V64.89a26.13 26.13 0 0 0 4.517.571zm2.258-2.259a26.128 26.128 0 0 0 4.516-.571v2.215c-1.282.316-2.796.544-4.516.614zm-11.29-1.106v-1.177c.647.41 1.414.762 2.257 1.065v2.117c-1.45-.636-2.258-1.383-2.258-2.005zm-12.364.878l-.84-.84c.752-.17 1.545-.447 2.361-.833l1.495 1.495c-1.473.575-2.574.617-3.016.178zm-4.572-.878c0 .622-.809 1.37-2.258 2.005v-2.098c.692-.248 1.31-.534 1.864-.847.06.074.108.153.177.222l.217.218zm-20.323 0v-1.177c.648.41 1.415.762 2.258 1.065v2.117c-1.45-.636-2.258-1.383-2.258-2.005zm0-5.693c.648.409 1.415.762 2.258 1.065v2.117c-1.45-.636-2.258-1.383-2.258-2.005zm0-4.516c.648.409 1.415.762 2.258 1.065v2.117c-1.45-.636-2.258-1.383-2.258-2.005zm3.733-5.87a21.305 21.305 0 0 0 7.558 1.401c2.245 0 4.408-.36 6.452-1.002 1.884.759 2.58 1.61 2.58 2.131 0 1.382-3.959 3.388-10.161 3.388-6.203 0-10.162-2.006-10.162-3.388 0-.697 1.181-1.764 3.733-2.53zM2.258 28.226c0-10.584 8.61-19.194 19.194-19.194 3.487 0 6.869.95 9.845 2.736a16.862 16.862 0 0 0-.813 5.167c0 6.749 3.976 12.57 9.7 15.29-1.871 8.85-9.606 15.194-18.732 15.194-10.584 0-19.194-8.61-19.194-19.193zM47.42 2.258c8.093 0 14.678 6.585 14.678 14.677 0 8.093-6.585 14.678-14.678 14.678s-14.677-6.585-14.677-14.678c0-8.092 6.584-14.677 14.677-14.677zM21.452 63.194v-2.249a26.13 26.13 0 0 0 4.516-.571v2.222c-1.342.327-2.888.532-4.516.598zm0 2.257a25.79 25.79 0 0 0 4.516-.558v2.212c-1.282.316-2.796.544-4.516.614zm-2.258.01v2.258c-1.721-.07-3.235-.297-4.517-.614V64.89a26.13 26.13 0 0 0 4.517.571zm0-4.516v2.258c-1.721-.07-3.235-.297-4.517-.614v-2.215a26.13 26.13 0 0 0 4.517.571zm6.774-2.872c-1.282.316-2.796.544-4.516.614V56.43a26.13 26.13 0 0 0 4.516-.571zm4.516-2.75c0 .622-.809 1.37-2.258 2.005V55.21c.843-.302 1.61-.655 2.258-1.065zm-11.29 1.106v2.258c-1.721-.07-3.235-.297-4.517-.614v-2.215a26.13 26.13 0 0 0 4.517.571zm10.137 4.81a7.37 7.37 0 0 1-1.105.608v-2.12c.503-.18.984-.375 1.424-.594-.218.745-.335 1.455-.319 2.106zm7.323-8.779c3.491-3.492 6.844-5.025 8.566-5.068a12.6 12.6 0 0 0-.059 1.156c0 1.091.156 2.143.42 3.152-.9 1.803-2.345 3.757-4.138 5.55-4.386 4.386-8.598 5.766-9.58 4.79-.976-.976.405-5.194 4.791-9.58zm8.552 6.956l-1.384-1.384a25.93 25.93 0 0 0 2.816-3.618c.348.646.757 1.253 1.21 1.824-1.554.876-2.469 1.97-2.642 3.178zm-2.988.205l1.605 1.605c-1.265 1.168-2.497 2.078-3.627 2.76L38.62 62.41a26.148 26.148 0 0 0 3.598-2.79zM57.58 38.387c5.603 0 10.16 4.558 10.16 10.161 0 5.604-4.557 10.162-10.16 10.162-5.604 0-10.162-4.558-10.162-10.162 0-5.603 4.558-10.16 10.162-10.16zM70 48.548c0-6.847-5.572-12.419-12.42-12.419-5.67 0-10.454 3.824-11.935 9.026-2.75-.191-6.848 1.969-10.587 5.708a27.847 27.847 0 0 0-2.316 2.63v-2.687c0-1.203-.723-2.298-2.05-3.206 5.763-2.742 10.116-8.005 11.617-14.522 1.614.513 3.33.793 5.11.793 9.339 0 16.936-7.597 16.936-16.936C64.355 7.597 56.758 0 47.419 0c-6.728 0-12.533 3.953-15.264 9.649a21.33 21.33 0 0 0-10.703-2.875C9.622 6.774 0 16.397 0 28.226c0 8.05 4.463 15.071 11.04 18.74-2.015 1.003-3.137 2.34-3.137 3.84v13.549c0 3.667 6.398 5.645 12.42 5.645 5.198 0 10.667-1.477 12.068-4.24l1.069 1.07c.654.653 1.52.944 2.517.944 2.637 0 6.189-2.032 9.184-4.727v1.308c0 3.667 6.399 5.645 12.42 5.645C63.6 70 70 68.022 70 64.355v-4.516c0-1.38-.95-2.624-2.686-3.6A12.346 12.346 0 0 0 70 48.548z"/></g></g></g></svg>