<svg xmlns="http://www.w3.org/2000/svg" width="70" height="70" viewBox="0 0 70 70"><g><g><g><path fill="#f0bc5e" d="M25.968 15.806h-10.03A28.306 28.306 0 0 0 2.615 31.613h18.838a3.391 3.391 0 0 0 3.387-3.387 3.391 3.391 0 0 0-3.387-3.387h-4.517a1.13 1.13 0 0 1 0-2.258h9.033a3.391 3.391 0 0 0 3.387-3.387 3.391 3.391 0 0 0-3.387-3.388z"/></g><g><path fill="#f0bc5e" d="M43.292 41.824l-2.886 2.308a5.353 5.353 0 0 0-2.019 4.202 5.365 5.365 0 0 0 4.496 5.307l1.179.197a1.316 1.316 0 0 1-.216 2.614h-5.459a5.672 5.672 0 0 0-4.516 2.258l-1.13 1.505a5.677 5.677 0 0 0-1.128 3.387v5.17c14.532-1.15 25.968-13.3 25.968-28.127H46.653a5.398 5.398 0 0 0-3.361 1.179z"/></g><g><path d="M56.452 40.645c0 14.94-12.157 27.097-27.097 27.097-14.94 0-27.097-12.156-27.097-27.097 0-14.94 12.156-27.097 27.097-27.097 1.008 0 2.032.08 3.057.197-.513 1.73-.8 3.555-.8 5.449 0 10.583 8.61 19.193 19.194 19.193 1.894 0 3.72-.286 5.45-.8.115 1.026.196 2.05.196 3.058zm4.733-12.67l-1.597 1.597 2.352 2.351a16.843 16.843 0 0 1-10.005 4.148v-3.33h-2.258v3.33a16.843 16.843 0 0 1-10.004-4.148l2.352-2.351-1.597-1.597-2.351 2.352a16.843 16.843 0 0 1-4.148-10.004h3.33v-2.258h-3.33A16.843 16.843 0 0 1 38.077 8.06l2.351 2.352 1.597-1.597-2.352-2.351a16.836 16.836 0 0 1 10.004-4.148v3.33h2.259v-3.33c3.819.254 7.29 1.771 10.004 4.148l-2.352 2.351 1.597 1.597 2.351-2.352a16.843 16.843 0 0 1 4.148 10.005h-3.33v2.258h3.33a16.843 16.843 0 0 1-4.148 10.004zM70 19.194C70 8.61 61.39 0 50.806 0c-7.873 0-14.649 4.77-17.605 11.568a29.61 29.61 0 0 0-3.846-.278C13.168 11.29 0 24.458 0 40.645S13.168 70 29.355 70 58.71 56.832 58.71 40.645c0-1.269-.109-2.56-.278-3.846C65.23 33.843 70 27.067 70 19.194z"/></g><g><path d="M26.992 65.373c.787.074 1.582.11 2.363.11v-2.257c-.713 0-1.436-.034-2.153-.102z"/></g><g><path d="M6.774 40.645H4.516c0 11.884 8.457 22.142 20.11 24.388l.427-2.216C14.462 60.775 6.774 51.45 6.774 40.645z"/></g><g><path fill="#f0bc5e" d="M50.806 33.871c-8.092 0-14.677-6.585-14.677-14.677 0-8.093 6.585-14.678 14.677-14.678 8.093 0 14.678 6.585 14.678 14.678 0 8.092-6.585 14.677-14.678 14.677z"/></g><g><path fill="#f0bc5e" d="M27.6 57.58h-.76a4.005 4.005 0 0 1-2.225-.672l-5.48-3.654c-.185-.124-.401-.19-.625-.19h-3.833a3.391 3.391 0 0 1-3.387-3.387 3.391 3.391 0 0 1 3.387-3.387h3.388a1.13 1.13 0 0 0 1.129-1.129v-.73c0-.463-.28-.875-.71-1.048l-2.11-.843a4.474 4.474 0 0 1-2.826-4.174 4.5 4.5 0 0 1 4.495-4.495h4.538c1.06 0 2.074.506 2.708 1.355l2.034 2.71c.212.283.548.451.903.451h4.516a3.391 3.391 0 0 1 3.387 3.387 3.391 3.391 0 0 1-3.387 3.387h-5.645a1.13 1.13 0 0 0-1.13 1.13v.978c0 .395.212.767.55.969l3.147 1.889a4.033 4.033 0 0 1 1.949 3.441c0 2.213-1.8 4.013-4.013 4.013z"/></g><g><path d="M51.935 18.065h-2.258v-4.517h2.258a2.26 2.26 0 0 1 2.259 2.258 2.26 2.26 0 0 1-2.259 2.259zm0 6.774h-2.258v-4.516h2.258a2.26 2.26 0 0 1 2.259 2.258 2.26 2.26 0 0 1-2.259 2.258zm0-13.549V9.032h-2.258v2.258H47.42v15.807h2.258v2.258h2.258v-2.258a4.52 4.52 0 0 0 4.517-4.516c0-1.347-.593-2.56-1.532-3.387a4.505 4.505 0 0 0 1.532-3.388 4.52 4.52 0 0 0-4.517-4.516z"/></g></g></g></svg>