<svg xmlns="http://www.w3.org/2000/svg" width="19" height="19" viewBox="0 0 19 19"><g><g><g><path fill="#d99a05" d="M18.8 14.77a.669.669 0 0 1-.009.949c-.568.566-1.134 1.131-1.702 1.7l-4.386-4.389c.1-.07.193-.145.278-.23l.692-.696.751-.75h.003a.68.68 0 0 1 .954-.004l3.418 3.42zm-9.227-1.33c.588.505 1.437.603 2.15.339l4.505 4.504c-1.076 1.05-3.749.923-6.1-.224-1.008-.492-1.927-1.127-2.798-1.79a23.933 23.933 0 0 1-2.444-2.154 25.126 25.126 0 0 1-2.146-2.45c-.661-.87-1.3-1.787-1.794-2.803C-.202 6.515-.336 3.844.712 2.766l4.503 4.505c-.264.713-.165 1.561.341 2.146.62.722 1.274 1.409 1.941 2.08a38.482 38.482 0 0 0 2.076 1.943zM5.964 6.29zM1.577 1.9L3.276.2a.674.674 0 0 1 .949-.008l3.418 3.42a.676.676 0 0 1-.004.956l-.748.747-.697.697a1.92 1.92 0 0 0-.23.278z"/></g></g></g></svg>