<svg xmlns="http://www.w3.org/2000/svg" width="56" height="56" viewBox="0 0 56 56"><g><g><g><path fill="#d99a05" d="M.5 27.75C.5 12.424 12.924 0 28.25 0S56 12.424 56 27.75 43.576 55.5 28.25 55.5.5 43.076.5 27.75z"/></g><g><g><g><path fill="#fff" d="M27.822 27.442c1.855 0 3.44-.657 4.752-1.97 1.312-1.312 1.969-2.896 1.969-4.751 0-1.856-.657-3.44-1.97-4.752C31.262 14.656 29.678 14 27.823 14c-1.856 0-3.44.656-4.752 1.969-1.313 1.313-1.97 2.896-1.97 4.752 0 1.855.657 3.439 1.97 4.751 1.313 1.313 2.896 1.97 4.752 1.97z"/></g><g><path fill="#fff" d="M40.082 34.538a17.919 17.919 0 0 0-.245-1.907 14.844 14.844 0 0 0-.465-1.9 9.006 9.006 0 0 0-.752-1.706 6.146 6.146 0 0 0-1.085-1.418 4.57 4.57 0 0 0-1.497-.936 5.262 5.262 0 0 0-1.951-.35c-.105 0-.35.126-.736.377-.384.25-.819.53-1.303.84-.484.309-1.115.589-1.89.84a7.555 7.555 0 0 1-2.337.376c-.782 0-1.56-.126-2.336-.377-.776-.25-1.406-.53-1.89-.84-.485-.308-.92-.588-1.304-.84-.386-.25-.63-.376-.735-.376-.712 0-1.363.117-1.952.35a4.568 4.568 0 0 0-1.496.936c-.409.392-.77.864-1.085 1.418a9.019 9.019 0 0 0-.753 1.707 14.841 14.841 0 0 0-.464 1.899 17.815 17.815 0 0 0-.245 1.907c-.04.59-.061 1.194-.061 1.812 0 1.4.426 2.506 1.278 3.317.852.81 1.983 1.216 3.395 1.216H35.47c1.412 0 2.544-.405 3.395-1.216.853-.811 1.278-1.917 1.278-3.317 0-.618-.02-1.222-.061-1.812z"/></g></g></g></g></g></svg>