<svg xmlns="http://www.w3.org/2000/svg" width="54.499" height="72.201" viewBox="0 0 54.499 72.201">
  <defs>
    <style>
      .cls-1, .cls-2 {
        fill: #011241;
      }

      .cls-2 {
        font-size: 19px;
        font-family: VAGRoundCyrillic, VAG Round Cyrillic;
        letter-spacing: 0.09em;
      }
    </style>
  </defs>
  <g id="document_1_" data-name="document (1)" transform="translate(-48.4)">
    <g id="Group_61" data-name="Group 61" transform="translate(48.4)">
      <g id="Group_60" data-name="Group 60">
        <path id="Path_94" data-name="Path 94" class="cls-1" d="M102.752,14.411l-.073-.073v-.073L88.78.366,88.707.293a.072.072,0,0,1-.073-.073A.072.072,0,0,1,88.56.146,1.2,1.2,0,0,0,87.829,0H53.374a4.974,4.974,0,0,0-3.511,1.463A5.109,5.109,0,0,0,48.4,4.974V67.227a4.868,4.868,0,0,0,1.39,3.438l.073.073A5.109,5.109,0,0,0,53.374,72.2h44.55a4.974,4.974,0,0,0,3.511-1.463,5.109,5.109,0,0,0,1.463-3.511V15.142A2.165,2.165,0,0,0,102.752,14.411ZM89.219,5.267l8.266,8.266H91.413a1.992,1.992,0,0,1-1.536-.658,2.281,2.281,0,0,1-.658-1.536V5.267Zm10.534,61.96a2.007,2.007,0,0,1-1.9,1.9H53.374a1.832,1.832,0,0,1-1.317-.585l-.073-.073a2.075,2.075,0,0,1-.512-1.244V4.9a1.832,1.832,0,0,1,.585-1.317A1.832,1.832,0,0,1,53.374,3H86.146v8.266a5.313,5.313,0,0,0,1.609,3.8,5.425,5.425,0,0,0,3.8,1.536h8.193V67.227Z" transform="translate(-48.4)"/>
        <text id="XLS" class="cls-2" transform="translate(27.098 42.201)"><tspan x="-17.375" y="0">XLS</tspan></text>
      </g>
    </g>
  </g>
</svg>
